<?xml version="1.0" encoding="utf-8"?>
<!-- Generator: Adobe Illustrator 27.8.1, SVG Export Plug-In . SVG Version: 6.00 Build 0)  -->
<svg version="1.1" xmlns="http://www.w3.org/2000/svg" xmlns:xlink="http://www.w3.org/1999/xlink" x="0px" y="0px"
	 viewBox="300 260 1400 480" style="enable-background:new 0 0 2000 1000;" xml:space="preserve">
<style type="text/css">
	.st0{fill:#1A1A1A;}
	.st1{fill:#F8FBFF;}
	.st2{fill:#0071F5;}
	.st3{fill:#08DF6B;}
	.st4{display:none;}
	.st5{display:inline;fill:#F8FBFF;}
	.st6{display:inline;fill:#1A1A1A;}
</style>
<g id="Colors__x26__Labels">
</g>
<g id="BG_etc." class="st4">
	<rect y="0" class="st6" width="2000" height="1000"/>
</g>
<g id="Logo_Picto">
</g>
<g id="Logo_Slogan">
</g>
<g id="Logo_Typo">
	<g>
		<path class="st1" d="M688.2,441.9v99.7h-38.5V452c0-6.2-1.5-11.9-4.6-17c-3.1-5.1-7.1-9.2-12.2-12.2c-5.1-3-10.8-4.5-17-4.5
			c-6.2,0-11.9,1.5-17,4.5c-5.1,3-9.2,7-12.2,12.2c-3,5.1-4.5,10.8-4.5,17v89.6h-38.5l-0.2-157.8h38.5l0.2,14
			c5.4-5.7,11.8-10.2,19.3-13.5c7.5-3.3,15.5-5,24.1-5c11.5,0,21.9,2.8,31.4,8.4c9.5,5.6,17,13.2,22.6,22.6
			C685.4,419.9,688.2,430.4,688.2,441.9z"/>
		<path class="st1" d="M889.3,383.9h38.5v157.8h-38.5V383.9z"/>
		<path class="st1" d="M1351,383.9c-8.6,0-16.7,1.7-24.1,5c-7.5,3.3-13.9,7.8-19.2,13.5c0-10.5,0-18.4,0-18.4h-38.5l0.2,157.8h38.5
			v-87.4c0.3-5.2,1.7-10,4.4-14.5c3-5.1,7-9.2,12.1-12.3c0.6-0.3,1.2-0.6,1.7-0.9l-0.1,0c0,0,21.2-13.4,42.6-4.8v-35.4
			c0,0,0-0.1,0-0.1C1362.9,384.7,1357.1,383.9,1351,383.9z"/>
		<path class="st1" d="M859.6,490.8h-43.5c-3.5,4.8-7.6,8.7-12.5,11.7c-5.5,3.3-11.7,4.9-18.4,4.8c-6.5-0.1-12.4-1.6-17.5-4.3
			c-5.2-2.8-9.4-6.5-12.8-11.2c-3.4-4.7-5.8-10-7.3-15.9H863c1.8-12.6,1.1-24.7-2.2-36.3c-3.3-11.6-8.5-21.9-15.6-30.9
			c-7.2-9-15.9-16.2-26.1-21.4c-10.3-5.2-21.5-7.8-33.9-7.8c-10.8,0-21,2.2-30.6,6.5c-9.6,4.3-18,10.3-25.2,17.9
			c-7.2,7.6-12.9,16.5-17,26.5c-4.1,10-6.2,20.8-6.2,32.3c0,15.3,3.5,29.2,10.6,41.8c7.1,12.6,16.6,22.7,28.6,30.1
			c11.9,7.5,25.2,11.2,39.7,11.2c15.8,0,30-4.4,42.8-13.3c11.1-7.7,19.7-17.4,26-29c0,0,0,0,0,0c0,0,0,0,0,0
			c0.1-0.1,0.1-0.2,0.2-0.3c0.6-1.1,1.3-2.5,2-4c0.2-0.4,0.4-0.7,0.5-1l-0.1,0C857.9,495.4,859,492.5,859.6,490.8z M754.8,429.7
			c3.6-5,8.1-8.9,13.3-11.9c5.2-2.9,10.9-4.4,17.1-4.4c6.2,0,11.9,1.5,17.3,4.5c5.3,3,9.8,7,13.5,11.9c3.6,5,6,10.6,7.2,16.7h-75.8
			C748.7,440.3,751.2,434.7,754.8,429.7z"/>
		<polygon class="st1" points="1073.6,418.6 1073.6,384 995.3,384 995.3,383.9 956.8,383.9 956.8,384 956.8,413.3 956.8,418.6 
			956.8,541.7 995.3,541.7 995.3,475.9 1053.2,475.9 1053.2,446.6 995.3,446.6 995.3,418.6 		"/>
		<path class="st1" d="M1126.9,463.3c0-0.2,0-0.4,0-0.6c0-8,1.8-15.4,5.4-22.2c3.6-6.8,8.4-12.3,14.5-16.4
			c6.1-4.1,12.9-6.2,20.5-6.2c7.4,0,14.1,2,20.3,6.1c6.2,4.1,11,9.5,14.7,16.3c3.6,6.8,5.4,14.3,5.4,22.5c0,0.2,0,0.4,0,0.6h38.5
			c0-0.2,0-0.4,0-0.6c0-15.4-3.6-29.4-10.7-42c-7.1-12.6-16.6-22.7-28.6-30.1c-11.9-7.5-25.2-11.2-39.7-11.2
			c-10.8,0-21,2.2-30.6,6.5c-9.6,4.3-18,10.3-25.2,17.9c-7.2,7.6-12.9,16.5-17,26.5c-4.1,10-6.2,20.9-6.2,32.4c0,0.2,0,0.4,0,0.6
			H1126.9z"/>
		<path class="st1" d="M1567.6,418.4c6.2,0,11.8,1.6,16.8,4.7c5,3.1,9,7.2,12,12.3c3,5.1,4.5,10.7,4.5,16.8v10.6h38.5v-20.9
			c0-11.6-2.8-22.1-8.4-31.5c-5.6-9.4-13.2-16.9-22.6-22.6c-9.4-5.6-19.9-8.4-31.5-8.4c-10.9,0-21,2.6-30.1,7.7
			c-9.2,5.2-16.5,12-22.1,20.7c-5.5-8.6-12.8-15.5-22-20.7c-9.2-5.2-19.3-7.7-30.2-7.7c-8.6,0-16.7,1.7-24.1,5
			c-7.5,3.3-13.9,7.8-19.3,13.5v-14h-38.5v157.8h38.5v-89.5c0-6.1,1.5-11.7,4.5-16.8c3-5.1,7-9.2,12.1-12.3
			c5.1-3.1,10.6-4.7,16.7-4.7c6.2,0,11.8,1.5,16.9,4.5c5,3,9,7,12,12.1c2.9,5.1,4.4,10.8,4.4,17.2v89.5h38.5v-89.5
			c0-6.4,1.5-12.2,4.6-17.2c3-5.1,7.1-9.1,12.1-12.1C1555.8,419.9,1561.4,418.4,1567.6,418.4z"/>
		<circle class="st1" cx="1620.2" cy="524.9" r="20.9"/>
		<path class="st1" d="M516.8,463.3h-38.5h0c0,0.2,0,0.4,0,0.6v0c0,8-1.8,15.4-5.4,22.2c-3.6,6.8-8.4,12.3-14.5,16.4
			c-6.1,4.1-12.9,6.2-20.5,6.2c-7.4,0-14.1-2-20.3-6.1c-6.2-4.1-11-9.5-14.7-16.3c-3.6-6.8-5.4-14.3-5.4-22.5c0-0.2,0-0.4,0-0.6H359
			c0,0.2,0,0.4,0,0.6c0,15.4,3.6,29.4,10.7,42c7.1,12.6,16.6,22.7,28.6,30.1c11.9,7.5,25.2,11.2,39.7,11.2c10.8,0,21-2.2,30.6-6.5
			c3.4-1.5,6.7-3.3,9.8-5.3v85.1h38.5L516.8,463.3L516.8,463.3z"/>
	</g>
</g>
</svg>
