<?xml version="1.0" encoding="utf-8"?>
<!-- Generator: Adobe Illustrator 27.8.1, SVG Export Plug-In . SVG Version: 6.00 Build 0)  -->
<svg version="1.1" xmlns="http://www.w3.org/2000/svg" xmlns:xlink="http://www.w3.org/1999/xlink" x="0px" y="0px"
	 viewBox="0 0 2000 1000" style="enable-background:new 0 0 2000 1000;" xml:space="preserve">
<style type="text/css">
	.st0{fill:#1A1A1A;}
	.st1{fill:#F8FBFF;}
	.st2{fill:#0071F5;}
	.st3{fill:#08DF6B;}
	.st4{display:none;}
	.st5{display:inline;fill:#F8FBFF;}
	.st6{display:inline;fill:#1A1A1A;}
</style>
<g id="Colors__x26__Labels">
</g>
<g id="BG_etc." class="st4">
	<rect y="0" class="st5" width="2000" height="1000"/>
</g>
<g id="Logo_Picto">
</g>
<g id="Logo_Slogan">
	<g>
		<g>
			<path class="st0" d="M689.8,442.1v99.2h-38.3v-89.2c0-6.2-1.5-11.8-4.6-16.9c-3-5.1-7.1-9.1-12.2-12.1c-5.1-3-10.7-4.5-16.9-4.5
				c-6.2,0-11.8,1.5-16.9,4.5c-5.1,3-9.1,7-12.1,12.1c-3,5.1-4.5,10.7-4.5,16.9v89.2h-38.3l-0.2-157h38.3l0.2,14
				c5.3-5.6,11.7-10.1,19.2-13.4c7.4-3.3,15.4-4.9,24-4.9c11.4,0,21.8,2.8,31.2,8.4c9.4,5.6,16.9,13.1,22.5,22.5
				C687,420.1,689.8,430.6,689.8,442.1z"/>
			<path class="st0" d="M889.9,384.3h38.3v157h-38.3V384.3z"/>
			<path class="st0" d="M1349.1,384.3c-8.6,0-16.6,1.6-24,4.9c-7.4,3.3-13.8,7.8-19.1,13.4c0-10.4,0-18.3,0-18.3h-38.3l0.2,157h38.3
				v-86.9c0.3-5.2,1.7-10,4.3-14.4c3-5.1,7-9.2,12-12.2c0.6-0.3,1.1-0.6,1.7-0.9l-0.1,0c0,0,21.1-13.3,42.4-4.8v-35.2
				c0,0,0-0.1,0-0.1C1361,385.1,1355.2,384.3,1349.1,384.3z"/>
			<path class="st0" d="M860.4,490.7h-43.3c-3.4,4.8-7.5,8.7-12.4,11.6c-5.5,3.3-11.6,4.9-18.3,4.8c-6.5-0.1-12.3-1.5-17.4-4.3
				c-5.1-2.8-9.4-6.5-12.7-11.1c-3.3-4.7-5.8-9.9-7.2-15.8h114.7c1.8-12.6,1-24.6-2.2-36.1c-3.2-11.5-8.4-21.8-15.5-30.8
				c-7.1-9-15.8-16.1-26-21.3c-10.2-5.2-21.4-7.8-33.7-7.8c-10.8,0-20.9,2.1-30.5,6.4c-9.5,4.3-17.9,10.2-25,17.8
				c-7.2,7.6-12.8,16.4-16.9,26.4c-4.1,10-6.1,20.7-6.1,32.1c0,15.2,3.5,29,10.6,41.6c7.1,12.6,16.5,22.6,28.4,30
				c11.9,7.4,25,11.1,39.5,11.1c15.7,0,29.9-4.4,42.5-13.3c11-7.7,19.6-17.3,25.9-28.8c0,0,0,0,0,0c0,0,0,0,0,0
				c0.1-0.1,0.1-0.2,0.2-0.3c0.6-1.1,1.3-2.5,2-4c0.2-0.3,0.4-0.7,0.5-1l0,0C858.6,495.2,859.7,492.4,860.4,490.7z M756.1,429.9
				c3.6-5,8-8.9,13.3-11.8c5.2-2.9,10.9-4.4,17-4.4c6.1,0,11.9,1.5,17.2,4.4c5.3,3,9.8,6.9,13.4,11.9c3.6,5,6,10.5,7.1,16.6h-75.4
				C750,440.5,752.5,434.9,756.1,429.9z"/>
			<polygon class="st0" points="1073.2,418.9 1073.2,384.4 995.3,384.4 995.3,384.3 957,384.3 957,384.4 957,413.6 957,418.9 
				957,541.3 995.3,541.3 995.3,475.8 1052.9,475.8 1052.9,446.7 995.3,446.7 995.3,418.9 			"/>
			<path class="st0" d="M1126.2,463.4c0-0.2,0-0.4,0-0.6c0-8,1.8-15.3,5.3-22.1c3.6-6.8,8.4-12.2,14.4-16.3
				c6.1-4.1,12.9-6.1,20.4-6.1c7.3,0,14,2,20.2,6c6.1,4,11,9.4,14.6,16.2c3.6,6.7,5.4,14.2,5.4,22.4c0,0.2,0,0.4,0,0.6h38.3
				c0-0.2,0-0.4,0-0.6c0-15.3-3.5-29.2-10.6-41.8c-7.1-12.6-16.5-22.6-28.4-30c-11.9-7.4-25-11.1-39.5-11.1
				c-10.8,0-20.9,2.1-30.5,6.4c-9.5,4.3-17.9,10.2-25,17.8c-7.2,7.6-12.8,16.4-16.9,26.4c-4.1,10-6.1,20.7-6.1,32.3
				c0,0.2,0,0.4,0,0.6H1126.2z"/>
			<path class="st0" d="M1564.6,418.7c6.2,0,11.7,1.5,16.7,4.6c5,3.1,8.9,7.2,11.9,12.2c3,5.1,4.5,10.7,4.5,16.7v10.6h38.3v-20.8
				c0-11.5-2.8-21.9-8.4-31.3c-5.6-9.4-13.1-16.8-22.5-22.4c-9.4-5.6-19.8-8.4-31.3-8.4c-10.9,0-20.9,2.6-30,7.7
				c-9.1,5.1-16.4,12-22,20.6c-5.4-8.6-12.7-15.4-21.9-20.6c-9.2-5.1-19.2-7.7-30.1-7.7c-8.6,0-16.6,1.6-24,4.9
				c-7.4,3.3-13.8,7.8-19.2,13.4v-14h-38.3v157h38.3v-89c0-6.1,1.5-11.6,4.5-16.7c3-5.1,7-9.2,12-12.2c5-3.1,10.6-4.6,16.6-4.6
				c6.2,0,11.8,1.5,16.8,4.5c5,3,9,7,11.9,12c2.9,5,4.4,10.7,4.4,17.1v89h38.3v-89c0-6.4,1.5-12.1,4.6-17.1c3-5,7-9,12-12
				C1552.9,420.2,1558.5,418.7,1564.6,418.7z"/>
			<circle class="st0" cx="1616.9" cy="524.6" r="20.7"/>
			<path class="st0" d="M519.3,463.4H481h0c0,0.2,0,0.4,0,0.6v0c0,7.9-1.8,15.3-5.3,22.1c-3.6,6.8-8.4,12.2-14.4,16.3
				c-6.1,4.1-12.9,6.1-20.4,6.1c-7.3,0-14-2-20.2-6c-6.1-4-11-9.4-14.6-16.2c-3.6-6.7-5.4-14.2-5.4-22.4c0-0.2,0-0.4,0-0.6h-38.3
				c0,0.2,0,0.4,0,0.6c0,15.3,3.5,29.2,10.6,41.8c7.1,12.6,16.5,22.6,28.4,30c11.9,7.4,25,11.1,39.5,11.1c10.8,0,20.9-2.1,30.5-6.4
				c3.4-1.5,6.6-3.3,9.7-5.2v84.6h38.3L519.3,463.4L519.3,463.4z"/>
		</g>
		<g>
			<path class="st0" d="M997.4,601.7h-10.2l0,36.8h-6l0-36.8h-7.8v-6h7.8l0-13.4h6l0,13.4h10.2V601.7z"/>
			<path class="st0" d="M1039.1,595.7h6v42.8h-6l-0.2-8c-1.4,2.7-3.4,4.9-5.9,6.6c-2.5,1.7-5.5,2.5-9,2.5c-3.1,0-6.1-0.6-8.8-1.8
				c-2.7-1.2-5.2-2.8-7.2-4.9c-2.1-2.1-3.7-4.5-4.9-7.2c-1.2-2.7-1.8-5.7-1.8-8.8c0-3.1,0.6-6,1.7-8.7c1.2-2.7,2.8-5.1,4.8-7.2
				c2-2.1,4.4-3.7,7.1-4.8s5.6-1.7,8.7-1.7c3.6,0,6.7,0.8,9.3,2.5c2.7,1.7,4.8,3.9,6.3,6.7L1039.1,595.7z M1023.9,633.8
				c3.1,0,5.7-0.7,7.9-2.2c2.2-1.5,3.9-3.5,5.1-6.1c1.2-2.5,1.8-5.3,1.8-8.4c0-3.1-0.6-6-1.8-8.5c-1.2-2.5-2.9-4.5-5.1-6
				c-2.2-1.5-4.8-2.2-7.8-2.2c-3,0-5.8,0.7-8.3,2.2c-2.5,1.5-4.5,3.5-6,6.1c-1.5,2.5-2.2,5.4-2.2,8.4c0,3.1,0.8,5.9,2.3,8.5
				c1.5,2.5,3.5,4.5,6,6C1018.2,633,1021,633.8,1023.9,633.8z"/>
			<path class="st0" d="M1054.2,638.5v-64.2h6v64.2H1054.2z"/>
			<path class="st0" d="M1089,639.6c-3.9,0-7.5-1-10.8-3c-3.2-2-5.8-4.7-7.8-8.2c-1.9-3.4-2.9-7.2-2.9-11.3c0-3.1,0.6-6.1,1.7-8.8
				c1.1-2.7,2.6-5.1,4.6-7.2c2-2.1,4.2-3.7,6.8-4.9c2.6-1.2,5.4-1.8,8.3-1.8c3.2,0,6.1,0.6,8.8,1.9c2.7,1.3,5,3,6.9,5.3
				c1.9,2.3,3.4,4.9,4.4,7.9c1,3,1.4,6.3,1.2,9.8H1074c0.3,2.7,1.2,5.1,2.6,7.3c1.4,2.1,3.2,3.8,5.3,5.1c2.2,1.2,4.5,1.9,7.2,1.9
				c2.9,0,5.4-0.7,7.7-2.2c2.3-1.5,4.1-3.5,5.5-6.1l6.1,1.4c-1.7,3.8-4.3,6.9-7.8,9.3C1097.2,638.4,1093.3,639.6,1089,639.6z
				 M1073.8,614.5h30.4c-0.2-2.7-1-5.1-2.4-7.3c-1.4-2.2-3.2-4-5.5-5.3c-2.2-1.3-4.7-2-7.3-2s-5.1,0.6-7.3,1.9
				c-2.2,1.3-4,3.1-5.4,5.3C1075,609.3,1074.1,611.8,1073.8,614.5z"/>
			<path class="st0" d="M1154.9,612v26.5h-6v-25.3c0-2.3-0.6-4.5-1.7-6.4c-1.1-1.9-2.7-3.4-4.6-4.6c-1.9-1.1-4-1.7-6.4-1.7
				c-2.3,0-4.4,0.6-6.4,1.7c-1.9,1.1-3.5,2.7-4.6,4.6c-1.1,1.9-1.7,4-1.7,6.4v25.3h-6v-42.8h6v5.9c1.5-2.2,3.5-3.9,5.9-5.2
				c2.4-1.3,5.1-1.9,7.9-1.9c3.2,0,6.2,0.8,8.8,2.4c2.7,1.6,4.8,3.7,6.3,6.3C1154.2,605.8,1154.9,608.8,1154.9,612z"/>
			<path class="st0" d="M1185.4,601.7h-10.2l0,36.8h-6l0-36.8h-7.8v-6h7.8l0-13.4h6l0,13.4h10.2V601.7z"/>
			<path class="st0" d="M1190.5,643.3l2.7-14.5h6l-4.7,14.5H1190.5z"/>
			<path class="st0" d="M1253.2,574.2h6v64.2h-6v-8c-1.5,2.7-3.5,4.9-6.1,6.6c-2.6,1.7-5.6,2.5-9.2,2.5c-3.1,0-6-0.6-8.7-1.8
				c-2.7-1.2-5.1-2.8-7.2-4.9c-2.1-2.1-3.7-4.5-4.9-7.2c-1.2-2.7-1.8-5.6-1.8-8.7c0-3.1,0.6-6,1.8-8.8c1.2-2.7,2.8-5.1,4.9-7.2
				c2.1-2.1,4.5-3.7,7.2-4.9c2.7-1.2,5.6-1.8,8.7-1.8c3.5,0,6.6,0.8,9.2,2.5c2.6,1.7,4.6,3.9,6.1,6.6V574.2z M1238,633.8
				c3.1,0,5.7-0.7,7.9-2.2c2.2-1.5,3.9-3.5,5.1-6.1c1.2-2.5,1.8-5.3,1.8-8.4c0-3.1-0.6-6-1.8-8.5c-1.2-2.5-2.9-4.5-5.1-6
				c-2.2-1.5-4.8-2.2-7.8-2.2c-3,0-5.8,0.7-8.3,2.2c-2.5,1.5-4.5,3.5-6,6.1c-1.5,2.5-2.2,5.4-2.2,8.4c0,3.1,0.8,5.9,2.3,8.5
				c1.5,2.5,3.5,4.5,6,6C1232.3,633,1235,633.8,1238,633.8z"/>
			<path class="st0" d="M1288,639.6c-3.9,0-7.5-1-10.8-3c-3.2-2-5.8-4.7-7.8-8.2c-1.9-3.4-2.9-7.2-2.9-11.3c0-3.1,0.6-6.1,1.7-8.8
				c1.1-2.7,2.6-5.1,4.6-7.2c2-2.1,4.2-3.7,6.8-4.9c2.6-1.2,5.4-1.8,8.3-1.8c3.2,0,6.1,0.6,8.8,1.9c2.7,1.3,5,3,6.9,5.3
				c1.9,2.3,3.4,4.9,4.4,7.9c1,3,1.4,6.3,1.2,9.8H1273c0.3,2.7,1.2,5.1,2.6,7.3c1.4,2.1,3.2,3.8,5.3,5.1c2.2,1.2,4.5,1.9,7.2,1.9
				c2.9,0,5.4-0.7,7.7-2.2c2.3-1.5,4.1-3.5,5.5-6.1l6.1,1.4c-1.7,3.8-4.3,6.9-7.8,9.3S1292.3,639.6,1288,639.6z M1272.8,614.5h30.4
				c-0.2-2.7-1-5.1-2.4-7.3c-1.4-2.2-3.2-4-5.5-5.3c-2.2-1.3-4.7-2-7.3-2s-5.1,0.6-7.3,1.9c-2.2,1.3-4,3.1-5.4,5.3
				C1274,609.3,1273.1,611.8,1272.8,614.5z"/>
			<path class="st0" d="M1346.8,627.7l5.4,2.9c-1.9,2.7-4.4,4.9-7.4,6.5c-3,1.6-6.2,2.4-9.7,2.4c-3.9,0-7.5-1-10.8-3
				c-3.2-2-5.8-4.7-7.8-8.2c-1.9-3.4-2.9-7.2-2.9-11.3c0-3.1,0.6-6.1,1.7-8.8c1.1-2.7,2.6-5.1,4.6-7.2c2-2.1,4.2-3.7,6.8-4.9
				c2.6-1.2,5.4-1.8,8.3-1.8c3.5,0,6.7,0.8,9.7,2.4c3,1.6,5.4,3.8,7.4,6.6l-5.4,2.9c-1.5-1.9-3.3-3.3-5.4-4.3
				c-2.1-1-4.2-1.5-6.4-1.5c-2.9,0-5.5,0.8-7.8,2.3c-2.3,1.5-4.2,3.5-5.5,6.1c-1.4,2.5-2,5.3-2,8.3c0,3,0.7,5.8,2.1,8.3
				c1.4,2.5,3.2,4.5,5.6,6c2.3,1.5,4.9,2.2,7.8,2.2c2.3,0,4.5-0.5,6.6-1.6C1343.7,630.9,1345.4,629.5,1346.8,627.7z"/>
			<path class="st0" d="M1362.1,588.2c-1,0-1.8-0.3-2.5-1c-0.7-0.6-1-1.4-1-2.4c0-1,0.3-1.8,1-2.4c0.7-0.6,1.5-1,2.5-1
				c0.9,0,1.7,0.3,2.4,1c0.7,0.6,1,1.4,1,2.4c0,1-0.3,1.8-1,2.4C1363.9,587.8,1363.1,588.2,1362.1,588.2z M1359.1,595.7h6v42.8h-6
				V595.7z"/>
			<path class="st0" d="M1381.1,659.9h-6v-64.2h6v8c1.5-2.7,3.5-4.9,6.1-6.6c2.6-1.7,5.6-2.5,9.2-2.5c3.1,0,6,0.6,8.8,1.8
				c2.7,1.2,5.1,2.8,7.2,4.9c2.1,2.1,3.7,4.5,4.8,7.2c1.2,2.7,1.8,5.6,1.8,8.7c0,3.1-0.6,6-1.8,8.8c-1.2,2.7-2.8,5.1-4.8,7.2
				c-2.1,2.1-4.4,3.7-7.2,4.9c-2.7,1.2-5.6,1.8-8.8,1.8c-3.5,0-6.6-0.8-9.2-2.5c-2.6-1.7-4.6-3.9-6.1-6.6V659.9z M1396.3,600.4
				c-3,0-5.6,0.7-7.8,2.2c-2.2,1.5-3.9,3.5-5.1,6c-1.2,2.5-1.8,5.3-1.8,8.4c0,3.1,0.6,5.9,1.8,8.4c1.2,2.5,2.9,4.6,5.1,6.1
				c2.2,1.5,4.8,2.3,7.9,2.3c3,0,5.7-0.7,8.2-2.2c2.5-1.5,4.5-3.5,6-6c1.5-2.5,2.3-5.4,2.3-8.5c0-3.1-0.7-5.8-2.2-8.4
				c-1.5-2.5-3.5-4.5-6-6.1C1402.1,601.1,1399.3,600.4,1396.3,600.4z"/>
			<path class="st0" d="M1463.2,612v26.5h-6v-25.3c0-2.3-0.6-4.5-1.7-6.4c-1.1-1.9-2.7-3.4-4.6-4.6c-1.9-1.1-4-1.7-6.4-1.7
				c-2.3,0-4.4,0.6-6.4,1.7c-1.9,1.1-3.5,2.7-4.6,4.6c-1.1,1.9-1.7,4-1.7,6.4v25.3h-6v-64.2h6v27.3c1.5-2.2,3.5-3.9,5.9-5.2
				c2.4-1.3,5.1-1.9,7.9-1.9c3.2,0,6.2,0.8,8.8,2.4c2.7,1.6,4.8,3.7,6.3,6.3C1462.4,605.8,1463.2,608.8,1463.2,612z"/>
			<path class="st0" d="M1489.7,639.6c-3.9,0-7.5-1-10.8-3c-3.2-2-5.8-4.7-7.8-8.2c-1.9-3.4-2.9-7.2-2.9-11.3c0-3.1,0.6-6.1,1.7-8.8
				c1.1-2.7,2.6-5.1,4.6-7.2c2-2.1,4.2-3.7,6.8-4.9c2.6-1.2,5.4-1.8,8.3-1.8c3.2,0,6.1,0.6,8.8,1.9c2.7,1.3,5,3,6.9,5.3
				c1.9,2.3,3.4,4.9,4.4,7.9c1,3,1.4,6.3,1.2,9.8h-36.3c0.3,2.7,1.2,5.1,2.6,7.3c1.4,2.1,3.2,3.8,5.3,5.1c2.2,1.2,4.5,1.9,7.2,1.9
				c2.9,0,5.4-0.7,7.7-2.2c2.3-1.5,4.1-3.5,5.5-6.1l6.1,1.4c-1.7,3.8-4.3,6.9-7.8,9.3S1494,639.6,1489.7,639.6z M1474.5,614.5h30.4
				c-0.2-2.7-1-5.1-2.4-7.3c-1.4-2.2-3.2-4-5.5-5.3c-2.2-1.3-4.7-2-7.3-2c-2.7,0-5.1,0.6-7.3,1.9c-2.2,1.3-4,3.1-5.4,5.3
				C1475.6,609.3,1474.8,611.8,1474.5,614.5z"/>
			<path class="st0" d="M1518.3,638.5v-42.8h6v5.9c1.5-2.2,3.5-3.9,5.9-5.2c2.4-1.3,5.1-1.9,7.9-1.9c1.7,0,3.3,0.2,4.8,0.6l-2.4,6
				c-1.2-0.4-2.4-0.6-3.5-0.6c-2.3,0-4.4,0.6-6.4,1.7c-1.9,1.1-3.5,2.7-4.6,4.6c-1.1,1.9-1.7,4-1.7,6.4v25.3H1518.3z"/>
			<path class="st0" d="M1564.9,639.6c-3.9,0-7.5-1-10.8-3c-3.2-2-5.8-4.7-7.8-8.2c-1.9-3.4-2.9-7.2-2.9-11.3c0-3.1,0.6-6.1,1.7-8.8
				c1.1-2.7,2.6-5.1,4.6-7.2c2-2.1,4.2-3.7,6.8-4.9c2.6-1.2,5.4-1.8,8.3-1.8c3.2,0,6.1,0.6,8.8,1.9c2.7,1.3,5,3,6.9,5.3
				c1.9,2.3,3.4,4.9,4.4,7.9c1,3,1.4,6.3,1.2,9.8h-36.3c0.3,2.7,1.2,5.1,2.6,7.3c1.4,2.1,3.2,3.8,5.3,5.1c2.2,1.2,4.5,1.9,7.2,1.9
				c2.9,0,5.4-0.7,7.7-2.2c2.3-1.5,4.1-3.5,5.5-6.1l6.1,1.4c-1.7,3.8-4.3,6.9-7.8,9.3S1569.2,639.6,1564.9,639.6z M1549.6,614.5
				h30.4c-0.2-2.7-1-5.1-2.4-7.3c-1.4-2.2-3.2-4-5.5-5.3c-2.2-1.3-4.7-2-7.3-2c-2.7,0-5.1,0.6-7.3,1.9c-2.2,1.3-4,3.1-5.4,5.3
				C1550.8,609.3,1549.9,611.8,1549.6,614.5z"/>
			<path class="st0" d="M1628.3,574.2h6v64.2h-6v-8c-1.5,2.7-3.5,4.9-6.1,6.6c-2.6,1.7-5.6,2.5-9.2,2.5c-3.1,0-6-0.6-8.7-1.8
				c-2.7-1.2-5.1-2.8-7.2-4.9c-2.1-2.1-3.7-4.5-4.9-7.2c-1.2-2.7-1.8-5.6-1.8-8.7c0-3.1,0.6-6,1.8-8.8c1.2-2.7,2.8-5.1,4.9-7.2
				c2.1-2.1,4.5-3.7,7.2-4.9c2.7-1.2,5.6-1.8,8.7-1.8c3.5,0,6.6,0.8,9.2,2.5c2.6,1.7,4.6,3.9,6.1,6.6V574.2z M1613,633.8
				c3.1,0,5.7-0.7,7.9-2.2c2.2-1.5,3.9-3.5,5.1-6.1c1.2-2.5,1.8-5.3,1.8-8.4c0-3.1-0.6-6-1.8-8.5c-1.2-2.5-2.9-4.5-5.1-6
				c-2.2-1.5-4.8-2.2-7.8-2.2c-3,0-5.8,0.7-8.3,2.2c-2.5,1.5-4.5,3.5-6,6.1c-1.5,2.5-2.2,5.4-2.2,8.4c0,3.1,0.8,5.9,2.3,8.5
				c1.5,2.5,3.5,4.5,6,6C1607.4,633,1610.1,633.8,1613,633.8z"/>
		</g>
	</g>
</g>
<g id="Logo_Typo">
</g>
</svg>
