<?xml version="1.0" encoding="utf-8"?>
<!-- Generator: Adobe Illustrator 27.8.1, SVG Export Plug-In . SVG Version: 6.00 Build 0)  -->
<svg version="1.1" xmlns="http://www.w3.org/2000/svg" xmlns:xlink="http://www.w3.org/1999/xlink" x="0px" y="0px"
	 viewBox="0 0 1000 1000" style="enable-background:new 0 0 1000 1000;" xml:space="preserve">
<style type="text/css">
	.st0{fill:#1A1A1A;}
	.st1{fill:#F8FBFF;}
	.st2{fill:#0071F5;}
	.st3{fill:#08DF6B;}
	.st4{display:none;}
	.st5{display:inline;fill:#F8FBFF;}
	.st6{display:inline;fill:#1A1A1A;}
</style>
<g id="Colors__x26__Labels">
</g>
<g id="BG_etc." class="st4">
	<rect y="0" class="st5" width="1000" height="1000"/>
</g>
<g id="Logo_Picto">
	<g>
		<path class="st0" d="M318.7,420.3c0-0.4,0-0.8,0-1.3c0-17.5,3.9-33.8,11.7-48.7c7.8-15,18.4-27,31.8-36
			c13.4-9,28.4-13.5,44.9-13.5c16.1,0,30.9,4.4,44.4,13.3c13.5,8.9,24.2,20.7,32.2,35.6c8,14.9,11.9,31.3,11.9,49.3
			c0,0.4,0,0.8,0,1.3H580c0-0.4,0-0.8,0-1.3c0-33.7-7.8-64.3-23.3-92c-15.6-27.7-36.4-49.7-62.6-66c-26.2-16.4-55.1-24.5-86.9-24.5
			c-23.7,0-46.1,4.7-67.1,14.2c-21,9.5-39.4,22.5-55.1,39.2c-15.8,16.7-28.2,36.1-37.2,58.1c-9,22-13.5,45.7-13.5,71
			c0,0.4,0,0.8,0,1.3H318.7z"/>
		<circle class="st0" cx="710.4" cy="296.6" r="55.3"/>
		<path class="st0" d="M755.3,419H671h0c0,0.4,0,0.8,0,1.3v0c0,17.5-3.9,33.8-11.7,48.7c-7.8,15-18.4,27-31.8,36
			c-13.4,9-28.4,13.5-44.9,13.5c-16.1,0-30.9-4.4-44.4-13.3c-13.5-8.9-24.2-20.7-32.2-35.6c-8-14.9-11.9-31.3-11.9-49.3
			c0-0.4,0-0.8,0-1.3h-84.4c0,0.4,0,0.8,0,1.3c0,33.7,7.8,64.3,23.3,92c15.6,27.7,36.4,49.7,62.6,66c26.2,16.4,55.1,24.5,86.9,24.5
			c23.7,0,46.1-4.7,67.1-14.2c7.5-3.4,14.6-7.2,21.4-11.5v186.3h84.4L755.3,419L755.3,419z"/>
	</g>
</g>
<g id="Logo_Slogan">
</g>
<g id="Logo_Typo">
</g>
</svg>
